<svg width="23" height="32" viewBox="0 0 23 32" fill="none" xmlns="http://www.w3.org/2000/svg">
<path fill-rule="evenodd" clip-rule="evenodd" d="M1.73331 10.3911H0.655934C0.482192 10.3917 0.315346 10.3221 0.192265 10.1976C0.069183 10.0732 0 9.90405 0 9.72767V4.37201C0 3.3695 0.800562 2.5568 1.78811 2.5568H6.92196C7.49241 2.55712 8.05125 2.39317 8.53359 2.08398L10.7053 0.693322C11.0758 0.456393 11.5475 0.456393 11.918 0.693322L14.2178 2.16578C14.6158 2.42066 15.0768 2.55595 15.5474 2.55598H20.9786C21.8856 2.55598 22.6209 3.30239 22.6209 4.22313V5.63505C22.6209 5.75858 22.6257 10.4058 22.6257 10.4058C22.6671 10.8282 22.4724 11.2387 22.1213 11.4693L11.8963 19.0516C11.7589 19.1497 11.5792 19.1619 11.4302 19.0832C11.2812 19.0046 11.1878 18.8482 11.188 18.6778V16.9362C11.1881 16.5192 11.3849 16.1274 11.7174 15.8825L19.7103 9.91091C20.0231 9.68649 20.2046 9.31801 20.1938 8.92927L20.1801 6.05634C20.1703 5.68515 20.0062 5.33552 19.7284 5.09392C19.4507 4.85232 19.0852 4.74132 18.7223 4.78839L15.3581 4.81375C14.6762 4.8411 14.001 4.66812 13.4136 4.31557L11.6851 3.21286C11.4575 3.05836 11.1599 3.06096 10.9349 3.2194L9.37245 4.18386C8.69848 4.59471 7.92807 4.81396 7.14195 4.81866L3.74946 4.83911C2.97552 4.84406 2.35119 5.48334 2.35298 6.26903L2.36265 9.75057C2.36308 9.9203 2.29696 10.0832 2.17889 10.2034C2.06082 10.3236 1.9005 10.3911 1.73331 10.3911ZM21.6593 13.9907L12.2562 21.0503C11.6961 21.4749 10.9276 21.4749 10.3674 21.0503L0.97079 13.9907C0.786089 13.8516 0.539744 13.8306 0.334806 13.9366C0.129868 14.0425 0.00165872 14.2571 0.00381095 14.4905V22.2283C0.00271996 23.1696 0.450009 24.0534 1.20448 24.6006L10.203 31.126C10.8674 31.6054 11.7579 31.6054 12.4222 31.126L21.4208 24.6006C22.173 24.0514 22.6196 23.1689 22.6215 22.2283V14.484C22.6216 14.2526 22.4934 14.0409 22.29 13.9366C22.0866 13.8323 21.8426 13.8533 21.6593 13.9907ZM20.1551 21.4233C20.1816 22.0448 19.9038 22.6395 19.4129 23.0119L12.5256 28.3602C11.8085 28.9076 10.8212 28.9076 10.1041 28.3602L3.03472 22.9227C2.95963 22.8758 2.89152 22.8182 2.83246 22.7517C2.57946 22.4859 2.41634 22.1453 2.36669 21.7791C2.3459 21.687 2.33455 21.593 2.33285 21.4985L2.353 19.2726C2.35006 19.0864 2.45119 18.9146 2.6141 18.8289C2.77701 18.7433 2.97364 18.7586 3.12174 18.8685L10.3999 24.1686C10.9439 24.5656 11.677 24.5656 12.221 24.1686L19.4524 18.8955C19.5871 18.7973 19.7646 18.7836 19.9124 18.86C20.0601 18.9365 20.1535 19.0904 20.1543 19.2587L20.1551 21.4233Z" fill="#149ADE"/>
</svg>
