<svg width="49" height="10" viewBox="0 0 49 10" fill="none" xmlns="http://www.w3.org/2000/svg">
<g clip-path="url(#clip0_227_3733)">
<path fill-rule="evenodd" clip-rule="evenodd" d="M27.1075 2.02128V0.237305H21.4547C20.1918 0.237305 19.168 1.23824 19.168 2.47293C19.1683 3.30456 19.6406 4.06728 20.3942 4.45295L25.5981 7.11613C25.7503 7.19371 25.846 7.34741 25.8465 7.51525C25.8465 7.76472 25.6396 7.9669 25.3845 7.9669H19.6329V9.75088H25.3845C26.6468 9.75009 27.6698 8.74938 27.6698 7.51525C27.668 6.68441 27.1945 5.92321 26.4407 5.53951L21.2382 2.87205C21.0866 2.7934 20.9916 2.63941 20.9912 2.47152C20.9912 2.35188 21.04 2.23714 21.1266 2.15263C21.2134 2.06818 21.3308 2.02088 21.4533 2.02128H27.1075Z" fill="#121733"/>
<path fill-rule="evenodd" clip-rule="evenodd" d="M6.89206 0.333496H2.49152C1.11547 0.333496 0 1.42412 0 2.76944V9.84707H1.82471V2.795C1.82471 2.41767 2.13759 2.11178 2.52348 2.11178H6.89206V0.333496Z" fill="#121733"/>
<path fill-rule="evenodd" clip-rule="evenodd" d="M40.209 0.237305V9.75375H42.0337V2.02128H46.4763C46.86 2.02128 47.1719 2.32367 47.1752 2.69881V9.75088H48.9999V2.67325C48.9999 2.02719 48.7374 1.40759 48.2701 0.950759C47.8029 0.493928 47.1691 0.237305 46.5083 0.237305H40.209Z" fill="#121733"/>
<path fill-rule="evenodd" clip-rule="evenodd" d="M8.64277 0.237678V2.02165H14.7067L8.3595 8.22722C8.0134 8.57719 8.01818 9.13379 8.37027 9.47796C8.7223 9.82213 9.29161 9.82686 9.64957 9.48849L15.9983 3.28151V9.75125H17.823V0.234863L8.64277 0.237678Z" fill="#27DD97"/>
<path fill-rule="evenodd" clip-rule="evenodd" d="M33.3853 8.21002C31.5704 8.21002 30.0991 6.77157 30.0991 4.99717C30.0991 3.22277 31.5704 1.78432 33.3853 1.78432C35.2002 1.78432 36.6715 3.22277 36.6715 4.99717C36.6715 5.84924 36.3253 6.66646 35.709 7.269C35.0927 7.87154 34.2569 8.21002 33.3853 8.21002ZM36.7877 0.24745V1.50878C36.0904 0.459088 34.8003 0.000342506 33.1136 0.000342506C31.8155 -0.0153657 30.5718 0.509872 29.6937 1.44482C28.7465 2.4069 28.2734 3.59053 28.2744 4.99576C28.2423 6.31739 28.7536 7.59645 29.6937 8.54665C30.5693 9.4861 31.8138 10.0148 33.1136 9.99968C34.735 9.99968 36.0687 9.48267 36.7877 8.55234L37.1495 9.7568H38.6125V0.24745H36.7877Z" fill="#121733"/>
</g>
<defs>
<clipPath id="clip0_227_3733">
<rect width="49" height="10" fill="white"/>
</clipPath>
</defs>
</svg>
